<?xml version="1.0" encoding="UTF-8" standalone="no"?>
<!-- Generator: Adobe Adobe Illustrator 24.2.0, SVG Export Plug-In . SVG Version: 6.00 Build 0)  -->

<svg
   version="1.1"
   id="Layer_1"
   x="0px"
   y="0px"
   width="105mm"
   height="74mm"
   viewBox="0 0 396.85039 279.68504"
   xml:space="preserve"
   sodipodi:docname="Systems-ultras-more-saturation_stretched_A7.svg"
   inkscape:version="1.2.1 (9c6d41e410, 2022-07-14)"
   xmlns:inkscape="http://www.inkscape.org/namespaces/inkscape"
   xmlns:sodipodi="http://sodipodi.sourceforge.net/DTD/sodipodi-0.dtd"
   xmlns="http://www.w3.org/2000/svg"
   xmlns:svg="http://www.w3.org/2000/svg"><defs
   id="defs119">
	
	
	

	
	

	
	
	
	
</defs><sodipodi:namedview
   id="namedview117"
   pagecolor="#ffffff"
   bordercolor="#666666"
   borderopacity="1.0"
   inkscape:showpageshadow="2"
   inkscape:pageopacity="0.0"
   inkscape:pagecheckerboard="0"
   inkscape:deskcolor="#d1d1d1"
   showgrid="false"
   inkscape:zoom="2.6075392"
   inkscape:cx="193.09393"
   inkscape:cy="145.53952"
   inkscape:window-width="1920"
   inkscape:window-height="1048"
   inkscape:window-x="0"
   inkscape:window-y="0"
   inkscape:window-maximized="1"
   inkscape:current-layer="Layer_1"
   inkscape:document-units="mm" />
<style
   type="text/css"
   id="style2">
	.st0{fill:url(#SVGID_1_);}
	.st1{fill:#81B788;}
	.st2{opacity:0.79;fill:#81B788;}
	.st3{opacity:0.51;fill:#81B788;}
	.st4{fill:none;stroke:url(#SVGID_2_);stroke-miterlimit:10;}
	.st5{fill:#CFC8D0;}
	.st6{opacity:0.75;fill:#AB9EA9;}
	.st7{fill:#CF84AE;}
	.st8{fill:#D1C3D0;}
	.st9{fill:#B3AEB5;}
	.st10{opacity:0.75;fill:#807883;}
	.st11{fill:#D7D2D8;}
</style>
<radialGradient
   id="SVGID_1_"
   cx="5014.479"
   cy="3021.5054"
   r="5210.0034"
   gradientUnits="userSpaceOnUse"
   gradientTransform="matrix(0.03956818,0,0,0.04628675,0,-0.3002102)">
	<stop
   offset="0"
   style="stop-color:#54454d;stop-opacity:1;"
   id="stop4" />
	<stop
   offset="1"
   style="stop-color:#2A2227"
   id="stop6" />
</radialGradient>
<rect
   class="st0"
   width="396.8277"
   height="279.71133"
   id="rect9"
   x="0"
   y="-0.30021"
   style="fill:url(#SVGID_1_);stroke-width:0.0427958" />
<path
   class="st1"
   d="m 344.68596,60.29935 0.63466,-1.221074 -6.47137,-3.362108 -0.6505,1.25154 -1.25115,-0.650105 -5.40818,10.408806 1.25154,0.650106 -0.66632,1.282404 6.4409,3.346282 0.68217,-1.312873 1.25154,0.650106 5.40817,-10.408807 z m -6.69969,9.65978 -3.88402,-2.017978 5.35438,-10.305927 3.88401,2.017977 z"
   id="path11"
   style="fill:#6bcc7a;fill-opacity:1;stroke-width:0.0395682" /><polygon
   class="st1"
   points="8897.11,1457.92 8850,1557.78 8783.5,1526.41 8830.6,1426.55 8797.65,1411.01 8813.29,1377.85 8779.94,1362.12 8717.2,1495.13 8617.74,1448.21 8633.56,1414.66 8666.52,1430.21 8791.91,1164.4 8758.95,1148.85 8774.35,1116.22 8873.61,1163.04 8811.2,1295.33 8844.36,1310.97 8859.81,1278.21 8892.96,1293.85 8939.91,1194.32 9006.61,1225.78 8959.85,1324.92 8926.3,1309.09 8910.66,1342.25 8877.71,1326.7 8846.15,1393.6 8879.11,1409.14 8863.56,1442.1 "
   id="polygon13"
   style="fill:#6bcc7a;fill-opacity:1"
   transform="matrix(0.03956818,0,0,0.03956818,0,16)" /><polygon
   class="st2"
   points="8736.13,1918.47 8689.03,2018.32 8622.53,1986.95 8669.63,1887.1 8636.67,1871.55 8652.31,1838.4 8618.96,1822.67 8556.22,1955.68 8456.76,1908.76 8472.59,1875.21 8505.54,1890.76 8630.94,1624.94 8597.98,1609.4 8613.38,1576.76 8712.63,1623.59 8650.23,1755.88 8683.38,1771.52 8698.84,1738.76 8731.99,1754.4 8778.94,1654.87 8845.64,1686.33 8798.88,1785.47 8765.33,1769.64 8749.69,1802.79 8716.73,1787.25 8685.18,1854.15 8718.13,1869.69 8702.59,1902.65 "
   id="polygon15"
   style="fill:#6bcc7a;fill-opacity:1"
   transform="matrix(0.03956818,0,0,0.03956818,0,16)" /><path
   class="st3"
   d="m 335.84721,97.5706 3.62722,1.71093 c 0.0827,0.0392 0.1183,0.13809 0.0791,0.22079 l -2.32779,4.93415 c -0.0392,0.0831 -0.004,0.18201 0.0791,0.22079 l 1.01136,0.47719 c 0.0831,0.0392 0.18162,0.004 0.2208,-0.0791 l 0.46967,-0.99593 c 0.0392,-0.0831 0.1381,-0.11831 0.2208,-0.0791 l 1.01136,0.47719 c 0.0831,0.0392 0.18161,0.004 0.22079,-0.0791 l 1.71607,-3.6379 c 0.0392,-0.0831 0.13809,-0.11831 0.22078,-0.0791 l 2.33889,1.10356 c 0.0831,0.0392 0.11831,0.13809 0.0791,0.22079 l -1.70895,3.62247 c -0.0392,0.0831 -0.13809,0.11831 -0.22079,0.0791 l -1.02719,-0.48471 c -0.0831,-0.0392 -0.18201,-0.004 -0.22079,0.0791 l -0.4772,1.01136 c -0.0392,0.0831 -0.13809,0.11831 -0.22079,0.0791 l -1.00384,-0.47363 c -0.0827,-0.0392 -0.18162,-0.004 -0.22079,0.0791 l -1.10712,2.34679 c -0.0392,0.0831 -0.004,0.18201 0.0791,0.22079 l 1.00384,0.47363 c 0.0831,0.0392 0.11831,0.13809 0.0791,0.22079 l -0.47363,1.00384 c -0.0392,0.0831 -0.004,0.18162 0.0791,0.22079 l 1.02719,0.48472 c 0.0827,0.0392 0.11831,0.13809 0.0791,0.22079 l -1.72201,3.65056 c -0.0392,0.0831 -0.13809,0.11831 -0.22079,0.0791 l -2.33135,-1.0996 c -0.0831,-0.0392 -0.11831,-0.1381 -0.0791,-0.22079 l 1.72201,-3.65056 c 0.0392,-0.0831 0.004,-0.18202 -0.0791,-0.22079 l -1.00384,-0.47364 c -0.0827,-0.0392 -0.11831,-0.13809 -0.0791,-0.22079 l 0.47718,-1.01136 c 0.0392,-0.0831 0.004,-0.18201 -0.0791,-0.22079 l -1.01927,-0.48075 c -0.0827,-0.0392 -0.18162,-0.004 -0.22079,0.0791 l -2.34085,4.96264 c -0.0392,0.0831 -0.1381,0.11831 -0.22079,0.0791 l 3.03567,-12.86559 c 0.0392,-0.0831 0.004,-0.18202 -0.0791,-0.22079 l -1.00384,-0.47364 c -0.0831,-0.0392 -0.11831,-0.13809 -0.0791,-0.22079 l 0.4673,-0.99118 c 0.0404,-0.0823 0.13928,-0.11791 0.22237,-0.0787 z"
   id="path17"
   style="fill:#6bcc7a;fill-opacity:1;stroke-width:0.0395682" />
<radialGradient
   id="SVGID_2_"
   cx="5028.958"
   cy="3043.0105"
   r="4123.5908"
   gradientUnits="userSpaceOnUse"
   gradientTransform="matrix(0.03956818,0,0,0.03956818,0,16)">
	<stop
   offset="0"
   style="stop-color:#E11A4D"
   id="stop21" />
	<stop
   offset="1"
   style="stop-color:#2A2227"
   id="stop23" />
</radialGradient>
<rect
   x="1.1458945"
   y="17.701828"
   class="st4"
   width="395.68179"
   height="237.4091"
   id="rect26"
   style="stroke:url(#SVGID_2_);stroke-width:0.0395682" />
<polygon
   class="st5"
   points="7620,740.71 7523.58,1044.73 7652.64,1096.25 7711.24,1043.03 7639.09,1004.99 7716.35,807.98 7743.19,822.01 7804.76,759.11 7685.42,697.59 "
   id="polygon28"
   style="fill:#e9e0e8;fill-opacity:1"
   transform="matrix(0.03956818,0,0,0.03956818,0,16)" /><polygon
   class="st6"
   points="7479.41,1196.61 7383,1500.63 7512.06,1552.16 7570.66,1498.93 7498.5,1460.89 7575.76,1263.88 7602.6,1277.91 7664.17,1215.01 7544.84,1153.49 "
   id="polygon30"
   style="fill:#e9e0e8;fill-opacity:1"
   transform="matrix(0.03956818,0,0,0.03956818,0,16)" />
<g
   id="g54"
   style="opacity:1;fill:#de79b4;fill-opacity:1"
   transform="matrix(0.03956818,0,0,0.03956818,0,16)">
	<path
   class="st7"
   d="m 1121.13,2549.08 20.16,-141.85 815.25,-59.23 v -42.8 l -824.21,16.92 3.98,-565.4 c 584.1,-46.22 998.87,-120.95 1270.16,-218.99 l -110.49,211.03 60.72,4.98 -1,318.53 595.26,3.98 8.96,-328.49 84.61,-9.95 v -68.68 c 442.25,-2.31 873.13,-44.99 1288.07,-144.34 l -66.69,139.36 c 392.63,20.53 767.69,-22.47 1122.83,-129.4 l -74.66,175.19 c 253.25,4.2 541,-20.88 861.04,-72.67 l -59.73,123.43 365.32,513.64 366.31,-524.59 92.57,-10.95 -8.96,-235.91 c 513.05,10.12 999.56,1.62 1433.41,-43.8 l 213.02,245.87 -103.52,741.59 -67.03,74.21 -84.77,-52.31 53.75,-53.75 c 20.18,-193.43 60.66,-422.27 110.49,-667.43 l -174.2,-196.1 c -419.92,21.25 -847.3,28.56 -1281.6,22.89 l 6.97,221.98 -109.99,22.89 -446.45,591.78 -463.37,-591.28 -45.29,-1.49 29.36,-85.61 c -256.85,37.34 -530.91,52.65 -817.24,52.26 l 24.89,-122.93 c -338.12,60.94 -703.75,81.29 -1088,74.16 l 34.34,-88.09 c -312.52,42.84 -644.82,73.52 -991.94,95.06 l -15.43,63.21 -82.62,10.95 1.49,317.54 -826.7,13.44 1.99,-329.48 -78.64,-9.46 70.67,-132.89 c -318.95,61.34 -649.08,108.04 -989.45,141.35 l 1,423.55 830.18,5.47 -4.98,153.29 c -286.33,44.23 -564.76,71.95 -832.17,76.65 l -10.95,72.67 z"
   id="path34"
   style="fill:#de79b4;fill-opacity:1" />
	<path
   class="st7"
   d="m 2106.47,1949.84 h -767.72 c -9.55,0 -17.3,7.74 -17.3,17.3 v 118.7 c 0,9.55 7.74,17.3 17.3,17.3 h 767.72 c 9.55,0 17.3,-7.74 17.3,-17.3 v -118.7 c 0,-9.56 -7.75,-17.3 -17.3,-17.3 z m -82.25,83.86 c 0,3.53 -2.86,6.39 -6.39,6.39 h -590.45 c -3.53,0 -6.39,-2.86 -6.39,-6.39 v -14.43 c 0,-3.53 2.86,-6.39 6.39,-6.39 h 590.45 c 3.53,0 6.39,2.86 6.39,6.39 z"
   id="path36"
   style="fill:#de79b4;fill-opacity:1" />
	<path
   class="st7"
   d="m 5906.89,1936.4 h -816.3 c -10.16,0 -18.39,7.74 -18.39,17.3 v 118.7 c 0,9.55 8.23,17.3 18.39,17.3 h 816.3 c 10.16,0 18.39,-7.74 18.39,-17.3 v -118.7 c 0,-9.56 -8.23,-17.3 -18.39,-17.3 z m -87.45,83.86 c 0,3.53 -3.04,6.39 -6.79,6.39 h -627.81 c -3.75,0 -6.79,-2.86 -6.79,-6.39 v -14.43 c 0,-3.53 3.04,-6.39 6.79,-6.39 h 627.81 c 3.75,0 6.79,2.86 6.79,6.39 z"
   id="path38"
   style="fill:#de79b4;fill-opacity:1" />
	<path
   class="st7"
   d="m 5886.44,2246.47 h -796.29 c -9.91,0 -17.94,7.74 -17.94,17.3 v 118.7 c 0,9.55 8.03,17.3 17.94,17.3 h 796.29 c 9.91,0 17.94,-7.74 17.94,-17.3 v -118.7 c 0,-9.55 -8.04,-17.3 -17.94,-17.3 z m -85.31,83.87 c 0,3.53 -2.97,6.39 -6.63,6.39 h -612.43 c -3.66,0 -6.63,-2.86 -6.63,-6.39 v -14.43 c 0,-3.53 2.97,-6.39 6.63,-6.39 h 612.43 c 3.66,0 6.63,2.86 6.63,6.39 z"
   id="path40"
   style="fill:#de79b4;fill-opacity:1" />
	<path
   class="st7"
   d="M 3991.62,2179.78 H 3193.9 c -9.92,0 -17.97,7.74 -17.97,17.3 v 194.04 c 0,9.55 8.05,17.29 17.97,17.29 271.78,4.92 538.61,-15.5 797.72,-75.34 9.93,0 17.97,-7.74 17.97,-17.3 v -118.7 c 0,-9.55 -8.04,-17.29 -17.97,-17.29 z m -97.5,91.16 c 0,3.53 -2.97,6.39 -6.63,6.39 -199.9,43.4 -403.93,64.51 -612.37,61.88 -3.66,0 -6.63,-2.86 -6.63,-6.39 v -76.32 c 0,-3.53 2.97,-6.39 6.63,-6.39 h 612.37 c 3.66,0 6.63,2.86 6.63,6.39 z"
   id="path42"
   style="fill:#de79b4;fill-opacity:1" />
	<path
   class="st7"
   d="M 3048.66,2303.21 H 2171.4 c -10.91,0 -19.76,7.74 -19.76,17.3 v 149.63 c 0,9.55 8.85,17.3 19.76,17.3 274.58,37.97 563.15,18.65 877.26,-30.93 10.92,0 19.76,-7.74 19.76,-17.3 v -118.7 c 0,-9.56 -8.85,-17.3 -19.76,-17.3 z m -86.75,100.46 c 0,3.53 -3.4,6.39 -7.59,6.39 -28.35,37.16 -484.92,61.07 -701.52,0 -4.19,0 -7.59,-2.86 -7.59,-6.39 v -14.43 c 0,-3.53 3.4,-6.39 7.59,-6.39 h 701.52 c 4.19,0 7.59,2.86 7.59,6.39 z"
   id="path44"
   style="fill:#de79b4;fill-opacity:1" />
	<path
   class="st7"
   d="m 7190.46,1780.61 v 635.08 h 1051.16 v -635.08 z m 940.84,555.45 h -830.51 v -491.74 h 830.51 z"
   id="path46"
   style="fill:#de79b4;fill-opacity:1" />
	<path
   class="st7"
   d="m 4005.11,1915.99 v -38.82 H 3247.6 v 158.27 l 853.08,2.99 v 401.65 l 109.01,-4.04 5.96,-446.89 228.45,-4.48 c 4.97,150.93 0.36,297.43 -14.93,438.98 h 114.97 c 28.16,-164.69 29.34,-334.15 7.47,-507.66 z m -77.64,45.17 c 0,3.09 -2.51,5.6 -5.6,5.6 h -568.14 c -3.09,0 -5.6,-2.51 -5.6,-5.6 v -15.68 c 0,-3.09 2.51,-5.6 5.6,-5.6 h 568.14 c 3.09,0 5.6,2.51 5.6,5.6 z"
   id="path48"
   style="fill:#de79b4;fill-opacity:1" />
	<path
   class="st7"
   d="m 4674.04,1923.46 c 96.99,-15.73 202.29,-16.13 316.54,0 14.44,140.68 9.94,303.56 -2.99,476.31 l -123.91,9.35 26.86,-418.47 -109,-1.49 -1.66,426.29 -108.83,8.21 z"
   id="path50"
   style="fill:#de79b4;fill-opacity:1" />
	<polygon
   class="st7"
   points="6010.89,2089.69 6093.51,2089.69 6425.48,2532.66 6425.48,2564.01 6537.46,2572.97 6544.93,2543.11 6864.96,2106.12 6942.6,2106.12 6942.6,2574.08 6934.64,2574.08 6934.64,2552.07 6828.13,2549.08 6833.1,2327.1 6662.87,2545.82 6526.51,2634.69 6303.54,2623.74 6275.62,2528.84 6129.34,2343.03 6129.34,2524.99 6014.87,2522.2 "
   id="polygon52"
   style="fill:#de79b4;fill-opacity:1" />
</g>
<g
   id="g62"
   style="opacity:1;fill:#e9e0e8;fill-opacity:1"
   transform="matrix(0.03956818,0,0,0.03956818,0,16)">
	<polygon
   class="st8"
   points="6319.47,4212.43 6958.53,4212.43 6662.89,3289.67 6597.19,3289.67 "
   id="polygon56"
   style="fill:#e9e0e8;fill-opacity:1" />
	<path
   class="st8"
   d="m 5056.28,3143.35 v 492.73 c 83.11,14.05 168.22,17.44 240.57,4.61 96.14,-17.05 172.63,-90.93 197.7,-185.3 42.52,-222.46 -92.28,-342.16 -438.27,-312.04 z"
   id="path58"
   style="fill:#e9e0e8;fill-opacity:1" />
	<path
   class="st8"
   d="m 8630.83,3613.68 111.98,-885.43 -421.06,-259.8 -125.42,138.86 c -449.18,3.3 -868.98,20.57 -1201.97,79.14 l 34.34,-116.46 -94.07,4.48 v -22.4 l -389.71,-8.96 -7.46,29.86 -111.99,-8.96 v -31.36 l -410.61,-10.45 v 41.81 c -54.81,3.24 -106.71,11.47 -155.29,25.38 l 20.9,-43.3 c -310.71,12.04 -620.28,31.99 -928.73,59.73 l 35.83,-206.05 -316.54,23.89 v 235.92 l -161.26,41.81 34.34,-277.72 -443.46,16.42 v 37.33 l -937.69,117.96 v 29.86 l -1064.6,103.03 44.79,-179.18 -976.51,135.88 61.22,-135.88 H 909.85 l -61.22,901.85 203.07,179.18 -10.45,1021.3 552.46,485.27 c 668.34,-15.5 1337.77,-49.9 2008.26,-103.03 l 792.85,73.16 c 291.39,-76.25 739.92,-85.79 1201.97,-89.59 l 335.96,135.88 c 955.41,-38.21 1844.15,-90.99 2584.61,-176.19 l 341.93,-692.81 z m -5959.08,453.91 c -14.97,478.75 -216.84,748.51 -701.77,701.77 -283.94,-38.01 -458.98,-211.17 -522.6,-522.6 v -992.93 h -167.23 v -400.16 l 509.16,-18.91 -47.78,1120.84 c -11.95,307.59 38.82,477.8 234.42,509.16 273.09,33 416.55,-93.54 407.62,-407.62 l -60.72,-1222.38 h 348.9 z m 1091.48,574.86 h -922.76 l -65.7,-1807.68 h 334.46 l 20.9,1464.26 h 633.09 v 343.42 z m 863.02,-1451.32 -453.91,26.87 35.83,1478.2 h -325.5 l 44.79,-1475.21 -468.84,-38.82 v -347.4 H 4626.25 Z M 5752.08,4696.2 H 5417.62 L 5279,3952.62 l -243.63,2.99 26.88,740.59 h -277.72 l -41.81,-1861.44 h 585.31 c 299.33,48.08 464.2,208.45 487.26,487.26 8.5,319.72 -106.72,467.89 -278.22,538.03 z m 1340.83,80.63 -65.7,-250.85 h -770.46 l -65.7,235.92 H 5853.6 l 623.13,-1845.51 h 296.64 l 648.02,1860.44 z m 683.85,-29.86 -271.75,-26.88 -53.75,-331.48 c 221.81,88.47 428.66,115.99 600.24,0 100.54,-86.6 82.62,-225.96 0,-298.63 -95.09,-71.03 -192.52,-134.34 -292.62,-188.83 -13.92,-7.58 -27.59,-15.67 -40.57,-24.76 -165.74,-116.04 -281.48,-248.4 -296.91,-413.52 -10.88,-263.7 68.45,-453.45 265.78,-546.49 180.64,-75.61 401.87,-57.82 659.96,44.79 l -74.66,295.64 c -158.08,-63.89 -333.06,-117.41 -457.56,-51.35 -41.81,22.18 -71.28,62.07 -83.22,107.87 -34.41,131.97 13.59,193.07 98.82,251.06 266.77,207.05 524.59,291.66 564.4,564.4 45.52,432.14 -176.19,640.08 -618.16,618.18 z"
   id="path60"
   style="fill:#e9e0e8;fill-opacity:1" />
</g>
<g
   id="g78"
   style="fill:#e9e0e8;fill-opacity:1"
   transform="matrix(0.03956818,0,0,0.03956818,0,16)">
	<polygon
   class="st8"
   points="728.19,3180.18 674.43,3325.51 585.84,3339.44 270.29,3154.3 339.97,3009.96 430.56,3009.96 398.7,3098.55 615.7,3207.05 627.65,3174.2 "
   id="polygon64"
   style="fill:#e9e0e8;fill-opacity:1" />
	<polygon
   class="st8"
   points="621.14,3439.22 601.05,3592.86 517.78,3626.15 168.96,3515.8 204.8,3359.59 293.11,3339.44 281.76,3432.9 517.45,3490.43 521.8,3455.75 "
   id="polygon66"
   style="fill:#e9e0e8;fill-opacity:1" />
	<polygon
   class="st8"
   points="563.71,3716.34 581.27,3870.29 508.48,3922.68 143.34,3899.71 140.45,3739.46 221.3,3698.62 232.82,3792.05 475.43,3791.05 471.28,3756.34 "
   id="polygon68"
   style="fill:#e9e0e8;fill-opacity:1" />
	<polygon
   class="st8"
   points="564.93,4033.43 608.45,4182.15 545.65,4246.17 181.93,4285.73 151.79,4128.31 224.5,4074.29 251.77,4164.4 490.66,4122.09 480.66,4088.6 "
   id="polygon70"
   style="fill:#e9e0e8;fill-opacity:1" />
	<polygon
   class="st8"
   points="620.24,4310.02 711.14,4435.52 673.45,4516.9 344.1,4676.21 262.89,4538.03 313.26,4462.74 369.18,4538.48 580.03,4418.46 559.37,4390.26 "
   id="polygon72"
   style="fill:#e9e0e8;fill-opacity:1" />
	<polygon
   class="st8"
   points="735.39,4575.25 855.27,4673.43 839.58,4761.73 561.71,4999.72 447.96,4886.81 477.47,4801.17 550.85,4860.16 724.14,4690.35 696.98,4668.36 "
   id="polygon74"
   style="fill:#e9e0e8;fill-opacity:1" />
	<polygon
   class="st8"
   points="897.25,4795.76 1036.09,4864.56 1040.6,4954.13 823.16,5248.36 686.99,5163.83 696.56,5073.75 781.29,5114.78 912.1,4910.45 880.7,4895.1 "
   id="polygon76"
   style="fill:#e9e0e8;fill-opacity:1" />
</g>
<polygon
   class="st9"
   points="9602.08,2305.44 9694.9,2000.31 9565.25,1950.31 9507.28,2004.22 9579.87,2041.41 9504.94,2239.31 9477.94,2225.6 9417.12,2289.22 9537.17,2349.34 "
   id="polygon80"
   style="opacity:0.75;fill:#e9e0e8;fill-opacity:1"
   transform="matrix(0.03956818,0,0,0.03956818,0,16)" /><polygon
   class="st10"
   points="9442.81,2779.25 9535.64,2474.11 9405.98,2424.11 9348.01,2478.02 9420.61,2515.21 9345.68,2713.12 9318.67,2699.41 9257.85,2763.03 9377.9,2823.14 "
   id="polygon82"
   style="opacity:0.5;fill:#e9e0e8;fill-opacity:1"
   transform="matrix(0.03956818,0,0,0.03956818,0,16)" /><polygon
   class="st11"
   points="9766.72,1831.64 9859.55,1526.51 9729.89,1476.51 9671.92,1530.42 9744.52,1567.6 9669.59,1765.51 9642.58,1751.8 9581.76,1815.42 9701.81,1875.53 "
   id="polygon84"
   style="fill:#e9e0e8;fill-opacity:1"
   transform="matrix(0.03956818,0,0,0.03956818,0,16)" />
<g
   id="g102"
   style="fill:#e9e0e8;fill-opacity:1"
   transform="matrix(0.03956818,0,0,0.03956818,0,16)">
	<polygon
   class="st8"
   points="9024.77,3199.54 9079.96,3347.31 9170.93,3361.48 9494.93,3173.23 9423.38,3026.47 9330.37,3026.47 9363.08,3116.55 9140.27,3226.87 9128,3193.47 "
   id="polygon88"
   style="fill:#e9e0e8;fill-opacity:1" />
	<polygon
   class="st8"
   points="9134.68,3462.93 9155.31,3619.15 9240.82,3652.99 9598.97,3540.8 9562.17,3381.96 9471.5,3361.48 9483.16,3456.5 9241.15,3515 9236.69,3479.74 "
   id="polygon90"
   style="fill:#e9e0e8;fill-opacity:1" />
	<polygon
   class="st8"
   points="9193.65,3744.7 9175.62,3901.23 9250.36,3954.5 9625.28,3931.15 9628.25,3768.21 9545.23,3726.68 9533.4,3821.68 9284.29,3820.66 9288.55,3785.37 "
   id="polygon92"
   style="fill:#e9e0e8;fill-opacity:1" />
	<polygon
   class="st8"
   points="9192.4,4067.11 9147.72,4218.32 9212.2,4283.41 9585.65,4323.64 9616.6,4163.58 9541.94,4108.65 9513.95,4200.28 9268.66,4157.25 9278.92,4123.2 "
   id="polygon94"
   style="fill:#e9e0e8;fill-opacity:1" />
	<polygon
   class="st8"
   points="9135.61,4348.34 9042.28,4475.94 9080.97,4558.68 9419.14,4720.66 9502.53,4580.17 9450.81,4503.62 9393.39,4580.63 9176.9,4458.59 9198.11,4429.93 "
   id="polygon96"
   style="fill:#e9e0e8;fill-opacity:1" />
	<polygon
   class="st8"
   points="9017.38,4618.02 8894.29,4717.84 8910.4,4807.62 9195.71,5049.6 9312.51,4934.8 9282.2,4847.73 9206.86,4907.7 9028.93,4735.05 9056.82,4712.68 "
   id="polygon98"
   style="fill:#e9e0e8;fill-opacity:1" />
	<polygon
   class="st8"
   points="8851.18,4842.22 8708.62,4912.18 8704,5003.25 8927.26,5302.41 9067.07,5216.46 9057.25,5124.88 8970.25,5166.6 8835.93,4958.84 8868.18,4943.23 "
   id="polygon100"
   style="fill:#e9e0e8;fill-opacity:1" />
</g>
<g
   id="g104"
   transform="matrix(0.03956818,0,0,0.03956818,0,16)">
</g>
<g
   id="g106"
   transform="matrix(0.03956818,0,0,0.03956818,0,16)">
</g>
<g
   id="g108"
   transform="matrix(0.03956818,0,0,0.03956818,0,16)">
</g>
<g
   id="g110"
   transform="matrix(0.03956818,0,0,0.03956818,0,16)">
</g>
<g
   id="g112"
   transform="matrix(0.03956818,0,0,0.03956818,0,16)">
</g>
<g
   id="g114"
   transform="matrix(0.03956818,0,0,0.03956818,0,16)">
</g>
</svg>
