<?xml version="1.0" encoding="utf-8"?>
<!-- Generator: Adobe Adobe Illustrator 24.2.0, SVG Export Plug-In . SVG Version: 6.00 Build 0)  -->
<svg version="1.1" id="Layer_1" xmlns="http://www.w3.org/2000/svg" xmlns:xlink="http://www.w3.org/1999/xlink" x="0px" y="0px"
	 width="10000px" height="6000px" viewBox="0 0 10000 6000" style="enable-background:new 0 0 10000 6000;" xml:space="preserve">
<style type="text/css">
	.st0{fill:url(#SVGID_1_);}
	.st1{fill:#81B788;}
	.st2{opacity:0.79;fill:#81B788;}
	.st3{opacity:0.51;fill:#81B788;}
	.st4{fill:none;stroke:url(#SVGID_2_);stroke-miterlimit:10;}
	.st5{fill:#CFC8D0;}
	.st6{opacity:0.75;fill:#AB9EA9;}
	.st7{fill:#CF84AE;}
	.st8{fill:#D1C3D0;}
	.st9{fill:#B3AEB5;}
	.st10{opacity:0.75;fill:#807883;}
	.st11{fill:#D7D2D8;}
</style>
<radialGradient id="SVGID_1_" cx="5014.479" cy="3021.5054" r="5210.0034" gradientUnits="userSpaceOnUse">
	<stop  offset="0" style="stop-color:#715E68"/>
	<stop  offset="1" style="stop-color:#2A2227"/>
</radialGradient>
<rect class="st0" width="10028.96" height="6043.01"/>
<g>
	<path class="st1" d="M8711.19,1119.57l16.04-30.86l-163.55-84.97l-16.44,31.63l-31.62-16.43l-136.68,263.06l31.63,16.43
		l-16.84,32.41l162.78,84.57l17.24-33.18l31.63,16.43l136.68-263.06L8711.19,1119.57z M8541.87,1363.7l-98.16-51l135.32-260.46
		l98.16,51L8541.87,1363.7z"/>
	<polygon class="st1" points="8774.35,1116.22 8873.61,1163.04 8811.2,1295.33 8844.36,1310.97 8859.81,1278.21 8892.96,1293.85 
		8939.91,1194.32 9006.61,1225.78 8959.85,1324.92 8926.3,1309.09 8910.66,1342.25 8877.71,1326.7 8846.15,1393.6 8879.11,1409.14 
		8863.56,1442.1 8897.11,1457.92 8850,1557.78 8783.5,1526.41 8830.6,1426.55 8797.65,1411.01 8813.29,1377.85 8779.94,1362.12 
		8717.2,1495.13 8617.74,1448.21 8633.56,1414.66 8666.52,1430.21 8791.91,1164.4 8758.95,1148.85 	"/>
	<polygon class="st2" points="8613.38,1576.76 8712.63,1623.59 8650.23,1755.88 8683.38,1771.52 8698.84,1738.76 8731.99,1754.4 
		8778.94,1654.87 8845.64,1686.33 8798.88,1785.47 8765.33,1769.64 8749.69,1802.79 8716.73,1787.25 8685.18,1854.15 
		8718.13,1869.69 8702.59,1902.65 8736.13,1918.47 8689.03,2018.32 8622.53,1986.95 8669.63,1887.1 8636.67,1871.55 8652.31,1838.4 
		8618.96,1822.67 8556.22,1955.68 8456.76,1908.76 8472.59,1875.21 8505.54,1890.76 8630.94,1624.94 8597.98,1609.4 	"/>
	<path class="st3" d="M8487.81,2061.52l91.67,43.24c2.09,0.99,2.99,3.49,2,5.58l-58.83,124.7c-0.99,2.1-0.09,4.6,2,5.58l25.56,12.06
		c2.1,0.99,4.59,0.09,5.58-2l11.87-25.17c0.99-2.1,3.49-2.99,5.58-2l25.56,12.06c2.1,0.99,4.59,0.09,5.58-2l43.37-91.94
		c0.99-2.1,3.49-2.99,5.58-2l59.11,27.89c2.1,0.99,2.99,3.49,2,5.58l-43.19,91.55c-0.99,2.1-3.49,2.99-5.58,2l-25.96-12.25
		c-2.1-0.99-4.6-0.09-5.58,2l-12.06,25.56c-0.99,2.1-3.49,2.99-5.58,2l-25.37-11.97c-2.09-0.99-4.59-0.09-5.58,2l-27.98,59.31
		c-0.99,2.1-0.09,4.6,2,5.58l25.37,11.97c2.1,0.99,2.99,3.49,2,5.58l-11.97,25.37c-0.99,2.1-0.09,4.59,2,5.58l25.96,12.25
		c2.09,0.99,2.99,3.49,2,5.58l-43.52,92.26c-0.99,2.1-3.49,2.99-5.58,2l-58.92-27.79c-2.1-0.99-2.99-3.49-2-5.58l43.52-92.26
		c0.99-2.1,0.09-4.6-2-5.58l-25.37-11.97c-2.09-0.99-2.99-3.49-2-5.58l12.06-25.56c0.99-2.1,0.09-4.6-2-5.58l-25.76-12.15
		c-2.09-0.99-4.59-0.09-5.58,2l-59.16,125.42c-0.99,2.1-3.49,2.99-5.58,2l76.72-325.15c0.99-2.1,0.09-4.6-2-5.58l-25.37-11.97
		c-2.1-0.99-2.99-3.49-2-5.58l11.81-25.05C8483.21,2061.43,8485.71,2060.53,8487.81,2061.52z"/>
</g>
<radialGradient id="SVGID_2_" cx="5028.958" cy="3043.0105" r="4123.5908" gradientUnits="userSpaceOnUse">
	<stop  offset="0" style="stop-color:#E11A4D"/>
	<stop  offset="1" style="stop-color:#2A2227"/>
</radialGradient>
<rect x="28.96" y="43.01" class="st4" width="10000" height="6000"/>
<g>
	<polygon class="st5" points="7652.64,1096.25 7711.24,1043.03 7639.09,1004.99 7716.35,807.98 7743.19,822.01 7804.76,759.11 
		7685.42,697.59 7620,740.71 7523.58,1044.73 	"/>
	<polygon class="st6" points="7512.06,1552.16 7570.66,1498.93 7498.5,1460.89 7575.76,1263.88 7602.6,1277.91 7664.17,1215.01 
		7544.84,1153.49 7479.41,1196.61 7383,1500.63 	"/>
</g>
<g>
	<path class="st7" d="M1121.13,2549.08l20.16-141.85l815.25-59.23v-42.8l-824.21,16.92l3.98-565.4
		c584.1-46.22,998.87-120.95,1270.16-218.99l-110.49,211.03l60.72,4.98l-1,318.53l595.26,3.98l8.96-328.49l84.61-9.95l0-68.68
		c442.25-2.31,873.13-44.99,1288.07-144.34l-66.69,139.36c392.63,20.53,767.69-22.47,1122.83-129.4l-74.66,175.19
		c253.25,4.2,541-20.88,861.04-72.67l-59.73,123.43l365.32,513.64l366.31-524.59l92.57-10.95l-8.96-235.91
		c513.05,10.12,999.56,1.62,1433.41-43.8l213.02,245.87l-103.52,741.59l-67.03,74.21l-84.77-52.31l53.75-53.75
		c20.18-193.43,60.66-422.27,110.49-667.43l-174.2-196.1c-419.92,21.25-847.3,28.56-1281.6,22.89l6.97,221.98l-109.99,22.89
		l-446.45,591.78l-463.37-591.28l-45.29-1.49l29.36-85.61c-256.85,37.34-530.91,52.65-817.24,52.26l24.89-122.93
		c-338.12,60.94-703.75,81.29-1088,74.16l34.34-88.09c-312.52,42.84-644.82,73.52-991.94,95.06l-15.43,63.21l-82.62,10.95
		l1.49,317.54l-826.7,13.44l1.99-329.48l-78.64-9.46l70.67-132.89c-318.95,61.34-649.08,108.04-989.45,141.35l1,423.55l830.18,5.47
		l-4.98,153.29c-286.33,44.23-564.76,71.95-832.17,76.65l-10.95,72.67H1121.13z"/>
	<path class="st7" d="M2106.47,1949.84h-767.72c-9.55,0-17.3,7.74-17.3,17.3v118.7c0,9.55,7.74,17.3,17.3,17.3h767.72
		c9.55,0,17.3-7.74,17.3-17.3v-118.7C2123.77,1957.58,2116.02,1949.84,2106.47,1949.84z M2024.22,2033.7c0,3.53-2.86,6.39-6.39,6.39
		h-590.45c-3.53,0-6.39-2.86-6.39-6.39v-14.43c0-3.53,2.86-6.39,6.39-6.39h590.45c3.53,0,6.39,2.86,6.39,6.39V2033.7z"/>
	<path class="st7" d="M5906.89,1936.4h-816.3c-10.16,0-18.39,7.74-18.39,17.3v118.7c0,9.55,8.23,17.3,18.39,17.3h816.3
		c10.16,0,18.39-7.74,18.39-17.3v-118.7C5925.28,1944.14,5917.05,1936.4,5906.89,1936.4z M5819.44,2020.26
		c0,3.53-3.04,6.39-6.79,6.39h-627.81c-3.75,0-6.79-2.86-6.79-6.39v-14.43c0-3.53,3.04-6.39,6.79-6.39h627.81
		c3.75,0,6.79,2.86,6.79,6.39V2020.26z"/>
	<path class="st7" d="M5886.44,2246.47h-796.29c-9.91,0-17.94,7.74-17.94,17.3v118.7c0,9.55,8.03,17.3,17.94,17.3h796.29
		c9.91,0,17.94-7.74,17.94-17.3v-118.7C5904.38,2254.22,5896.34,2246.47,5886.44,2246.47z M5801.13,2330.34
		c0,3.53-2.97,6.39-6.63,6.39h-612.43c-3.66,0-6.63-2.86-6.63-6.39v-14.43c0-3.53,2.97-6.39,6.63-6.39h612.43
		c3.66,0,6.63,2.86,6.63,6.39V2330.34z"/>
	<path class="st7" d="M3991.62,2179.78H3193.9c-9.92,0-17.97,7.74-17.97,17.3v194.04c0,9.55,8.05,17.29,17.97,17.29
		c271.78,4.92,538.61-15.5,797.72-75.34c9.93,0,17.97-7.74,17.97-17.3v-118.7C4009.59,2187.52,4001.55,2179.78,3991.62,2179.78z
		 M3894.12,2270.94c0,3.53-2.97,6.39-6.63,6.39c-199.9,43.4-403.93,64.51-612.37,61.88c-3.66,0-6.63-2.86-6.63-6.39v-76.32
		c0-3.53,2.97-6.39,6.63-6.39h612.37c3.66,0,6.63,2.86,6.63,6.39V2270.94z"/>
	<path class="st7" d="M3048.66,2303.21H2171.4c-10.91,0-19.76,7.74-19.76,17.3v149.63c0,9.55,8.85,17.3,19.76,17.3
		c274.58,37.97,563.15,18.65,877.26-30.93c10.92,0,19.76-7.74,19.76-17.3v-118.7C3068.42,2310.95,3059.57,2303.21,3048.66,2303.21z
		 M2961.91,2403.67c0,3.53-3.4,6.39-7.59,6.39c-28.35,37.16-484.92,61.07-701.52,0c-4.19,0-7.59-2.86-7.59-6.39v-14.43
		c0-3.53,3.4-6.39,7.59-6.39h701.52c4.19,0,7.59,2.86,7.59,6.39V2403.67z"/>
	<path class="st7" d="M7190.46,1780.61v635.08h1051.16v-635.08H7190.46z M8131.3,2336.06h-830.51v-491.74h830.51V2336.06z"/>
	<path class="st7" d="M4005.11,1915.99v-38.82H3247.6v158.27l853.08,2.99v401.65l109.01-4.04l5.96-446.89l228.45-4.48
		c4.97,150.93,0.36,297.43-14.93,438.98h114.97c28.16-164.69,29.34-334.15,7.47-507.66H4005.11z M3927.47,1961.16
		c0,3.09-2.51,5.6-5.6,5.6h-568.14c-3.09,0-5.6-2.51-5.6-5.6v-15.68c0-3.09,2.51-5.6,5.6-5.6h568.14c3.09,0,5.6,2.51,5.6,5.6
		V1961.16z"/>
	<path class="st7" d="M4674.04,1923.46c96.99-15.73,202.29-16.13,316.54,0c14.44,140.68,9.94,303.56-2.99,476.31l-123.91,9.35
		l26.86-418.47l-109-1.49l-1.66,426.29l-108.83,8.21L4674.04,1923.46z"/>
	<polygon class="st7" points="6014.87,2522.2 6010.89,2089.69 6093.51,2089.69 6425.48,2532.66 6425.48,2564.01 6537.46,2572.97 
		6544.93,2543.11 6864.96,2106.12 6942.6,2106.12 6942.6,2574.08 6934.64,2574.08 6934.64,2552.07 6828.13,2549.08 6833.1,2327.1 
		6662.87,2545.82 6526.51,2634.69 6303.54,2623.74 6275.62,2528.84 6129.34,2343.03 6129.34,2524.99 	"/>
</g>
<g>
	<polygon class="st8" points="6597.19,3289.67 6319.47,4212.43 6958.53,4212.43 6662.89,3289.67 	"/>
	<path class="st8" d="M5056.28,3143.35v492.73c83.11,14.05,168.22,17.44,240.57,4.61c96.14-17.05,172.63-90.93,197.7-185.3
		C5537.07,3232.93,5402.27,3113.23,5056.28,3143.35z"/>
	<path class="st8" d="M8630.83,3613.68l111.98-885.43l-421.06-259.8l-125.42,138.86c-449.18,3.3-868.98,20.57-1201.97,79.14
		l34.34-116.46l-94.07,4.48v-22.4l-389.71-8.96l-7.46,29.86l-111.99-8.96v-31.36l-410.61-10.45v41.81
		c-54.81,3.24-106.71,11.47-155.29,25.38l20.9-43.3c-310.71,12.04-620.28,31.99-928.73,59.73l35.83-206.05l-316.54,23.89v235.92
		l-161.26,41.81l34.34-277.72l-443.46,16.42v37.33l-937.69,117.96v29.86l-1064.6,103.03l44.79-179.18l-976.51,135.88l61.22-135.88
		H909.85l-61.22,901.85l203.07,179.18l-10.45,1021.3l552.46,485.27c668.34-15.5,1337.77-49.9,2008.26-103.03l792.85,73.16
		c291.39-76.25,739.92-85.79,1201.97-89.59l335.96,135.88c955.41-38.21,1844.15-90.99,2584.61-176.19l341.93-692.81L8630.83,3613.68
		z M2671.75,4067.59c-14.97,478.75-216.84,748.51-701.77,701.77c-283.94-38.01-458.98-211.17-522.6-522.6l0-992.93h-167.23v-400.16
		l509.16-18.91l-47.78,1120.84c-11.95,307.59,38.82,477.8,234.42,509.16c273.09,33,416.55-93.54,407.62-407.62l-60.72-1222.38h348.9
		V4067.59z M3763.23,4642.45h-922.76l-65.7-1807.68h334.46l20.9,1464.26h633.09V4642.45z M4626.25,3191.13L4172.34,3218
		l35.83,1478.2h-325.5l44.79-1475.21l-468.84-38.82v-347.4h1167.63V3191.13z M5752.08,4696.2h-334.46L5279,3952.62l-243.63,2.99
		l26.88,740.59h-277.72l-41.81-1861.44h585.31c299.33,48.08,464.2,208.45,487.26,487.26c8.5,319.72-106.72,467.89-278.22,538.03
		L5752.08,4696.2z M7092.91,4776.83l-65.7-250.85h-770.46l-65.7,235.92h-337.45l623.13-1845.51h296.64l648.02,1860.44H7092.91z
		 M7776.76,4746.97l-271.75-26.88l-53.75-331.48c221.81,88.47,428.66,115.99,600.24,0c100.54-86.6,82.62-225.96,0-298.63
		c-95.09-71.03-192.52-134.34-292.62-188.83c-13.92-7.58-27.59-15.67-40.57-24.76c-165.74-116.04-281.48-248.4-296.91-413.52
		c-10.88-263.7,68.45-453.45,265.78-546.49c180.64-75.61,401.87-57.82,659.96,44.79l-74.66,295.64
		c-158.08-63.89-333.06-117.41-457.56-51.35c-41.81,22.18-71.28,62.07-83.22,107.87c-34.41,131.97,13.59,193.07,98.82,251.06
		c266.77,207.05,524.59,291.66,564.4,564.4C8440.44,4560.93,8218.73,4768.87,7776.76,4746.97z"/>
</g>
<g>
	<polygon class="st8" points="339.97,3009.96 430.56,3009.96 398.7,3098.55 615.7,3207.05 627.65,3174.2 728.19,3180.18 
		674.43,3325.51 585.84,3339.44 270.29,3154.3 	"/>
	<polygon class="st8" points="204.8,3359.59 293.11,3339.44 281.76,3432.9 517.45,3490.43 521.8,3455.75 621.14,3439.22 
		601.05,3592.86 517.78,3626.15 168.96,3515.8 	"/>
	<polygon class="st8" points="140.45,3739.46 221.3,3698.62 232.82,3792.05 475.43,3791.05 471.28,3756.34 563.71,3716.34 
		581.27,3870.29 508.48,3922.68 143.34,3899.71 	"/>
	<polygon class="st8" points="151.79,4128.31 224.5,4074.29 251.77,4164.4 490.66,4122.09 480.66,4088.6 564.93,4033.43 
		608.45,4182.15 545.65,4246.17 181.93,4285.73 	"/>
	<polygon class="st8" points="262.89,4538.03 313.26,4462.74 369.18,4538.48 580.03,4418.46 559.37,4390.26 620.24,4310.02 
		711.14,4435.52 673.45,4516.9 344.1,4676.21 	"/>
	<polygon class="st8" points="447.96,4886.81 477.47,4801.17 550.85,4860.16 724.14,4690.35 696.98,4668.36 735.39,4575.25 
		855.27,4673.43 839.58,4761.73 561.71,4999.72 	"/>
	<polygon class="st8" points="686.99,5163.83 696.56,5073.75 781.29,5114.78 912.1,4910.45 880.7,4895.1 897.25,4795.76 
		1036.09,4864.56 1040.6,4954.13 823.16,5248.36 	"/>
</g>
<g>
	<polygon class="st9" points="9565.25,1950.31 9507.28,2004.22 9579.87,2041.41 9504.94,2239.31 9477.94,2225.6 9417.12,2289.22 
		9537.17,2349.34 9602.08,2305.44 9694.9,2000.31 	"/>
	<polygon class="st10" points="9405.98,2424.11 9348.01,2478.02 9420.61,2515.21 9345.68,2713.12 9318.67,2699.41 9257.85,2763.03 
		9377.9,2823.14 9442.81,2779.25 9535.64,2474.11 	"/>
	<polygon class="st11" points="9729.89,1476.51 9671.92,1530.42 9744.52,1567.6 9669.59,1765.51 9642.58,1751.8 9581.76,1815.42 
		9701.81,1875.53 9766.72,1831.64 9859.55,1526.51 	"/>
</g>
<g>
	<polygon class="st8" points="9423.38,3026.47 9330.37,3026.47 9363.08,3116.55 9140.27,3226.87 9128,3193.47 9024.77,3199.54 
		9079.96,3347.31 9170.93,3361.48 9494.93,3173.23 	"/>
	<polygon class="st8" points="9562.17,3381.96 9471.5,3361.48 9483.16,3456.5 9241.15,3515 9236.69,3479.74 9134.68,3462.93 
		9155.31,3619.15 9240.82,3652.99 9598.97,3540.8 	"/>
	<polygon class="st8" points="9628.25,3768.21 9545.23,3726.68 9533.4,3821.68 9284.29,3820.66 9288.55,3785.37 9193.65,3744.7 
		9175.62,3901.23 9250.36,3954.5 9625.28,3931.15 	"/>
	<polygon class="st8" points="9616.6,4163.58 9541.94,4108.65 9513.95,4200.28 9268.66,4157.25 9278.92,4123.2 9192.4,4067.11 
		9147.72,4218.32 9212.2,4283.41 9585.65,4323.64 	"/>
	<polygon class="st8" points="9502.53,4580.17 9450.81,4503.62 9393.39,4580.63 9176.9,4458.59 9198.11,4429.93 9135.61,4348.34 
		9042.28,4475.94 9080.97,4558.68 9419.14,4720.66 	"/>
	<polygon class="st8" points="9312.51,4934.8 9282.2,4847.73 9206.86,4907.7 9028.93,4735.05 9056.82,4712.68 9017.38,4618.02 
		8894.29,4717.84 8910.4,4807.62 9195.71,5049.6 	"/>
	<polygon class="st8" points="9067.07,5216.46 9057.25,5124.88 8970.25,5166.6 8835.93,4958.84 8868.18,4943.23 8851.18,4842.22 
		8708.62,4912.18 8704,5003.25 8927.26,5302.41 	"/>
</g>
<g>
</g>
<g>
</g>
<g>
</g>
<g>
</g>
<g>
</g>
<g>
</g>
</svg>
